<svg xmlns="http://www.w3.org/2000/svg" width="960" height="74" viewBox="0 0 960 74" role="img" aria-label="Measured usage above, separate context items below. Dashed guides share one style. Every fold has its own body; brackets enclose pending ranges."><rect width="960" height="74" fill="#ffffff"/><g font-family="ui-monospace,SFMono-Regular,Menlo,Consolas,monospace" font-size="13"><text x="12" y="25" fill="#60676f" font-weight="normal">u</text><text x="20" y="25" fill="#60676f" font-weight="normal">s</text><text x="28" y="25" fill="#60676f" font-weight="normal">a</text><text x="36" y="25" fill="#60676f" font-weight="normal">g</text><text x="44" y="25" fill="#60676f" font-weight="normal">e</text><rect x="60" y="12" width="8" height="17" fill="#60676f"/><rect x="68" y="12" width="8" height="17" fill="#60676f"/><rect x="76" y="12" width="8" height="17" fill="#60676f"/><rect x="84" y="12" width="8" height="17" fill="#60676f"/><rect x="92" y="12" width="8" height="17" fill="#60676f"/><rect x="100" y="12" width="8" height="17" fill="#60676f"/><rect x="108" y="12" width="8" height="17" fill="#60676f"/><path d="M120 12v17" stroke="#1f2328" stroke-width="1.5" stroke-dasharray="2 2"/><rect x="124" y="12" width="8" height="17" fill="#60676f"/><rect x="132" y="12" width="8" height="17" fill="#60676f"/><rect x="140" y="12" width="8" height="17" fill="#60676f"/><rect x="148" y="12" width="8" height="17" fill="#60676f"/><rect x="156" y="12" width="8" height="17" fill="#60676f"/><rect x="164" y="12" width="8" height="17" fill="#60676f"/><rect x="172" y="12" width="8" height="17" fill="#60676f"/><rect x="180" y="12" width="8" height="17" fill="#60676f"/><rect x="188" y="12" width="8" height="17" fill="#60676f"/><rect x="196" y="12" width="8" height="17" fill="#d4d7db" opacity="0.35"/><rect x="204" y="12" width="8" height="17" fill="#d4d7db" opacity="0.35"/><rect x="212" y="12" width="8" height="17" fill="#d4d7db" opacity="0.35"/><rect x="220" y="12" width="8" height="17" fill="#d4d7db" opacity="0.35"/><rect x="228" y="12" width="8" height="17" fill="#d4d7db" opacity="0.35"/><rect x="236" y="12" width="8" height="17" fill="#d4d7db" opacity="0.35"/><rect x="244" y="12" width="8" height="17" fill="#d4d7db" opacity="0.35"/><rect x="252" y="12" width="8" height="17" fill="#d4d7db" opacity="0.35"/><rect x="260" y="12" width="8" height="17" fill="#d4d7db" opacity="0.35"/><rect x="268" y="12" width="8" height="17" fill="#d4d7db" opacity="0.35"/><rect x="276" y="12" width="8" height="17" fill="#d4d7db" opacity="0.35"/><rect x="284" y="12" width="8" height="17" fill="#d4d7db" opacity="0.35"/><rect x="292" y="12" width="8" height="17" fill="#d4d7db" opacity="0.35"/><rect x="300" y="12" width="8" height="17" fill="#d4d7db" opacity="0.35"/><path d="M312 12v17" stroke="#1f2328" stroke-width="1.5" stroke-dasharray="2 2"/><rect x="316" y="12" width="8" height="17" fill="#d4d7db" opacity="0.35"/><rect x="324" y="12" width="8" height="17" fill="#d4d7db" opacity="0.35"/><rect x="332" y="12" width="8" height="17" fill="#d4d7db" opacity="0.35"/><rect x="340" y="12" width="8" height="17" fill="#d4d7db" opacity="0.35"/><rect x="348" y="12" width="8" height="17" fill="#d4d7db" opacity="0.35"/><rect x="356" y="12" width="8" height="17" fill="#d4d7db" opacity="0.35"/><rect x="364" y="12" width="8" height="17" fill="#d4d7db" opacity="0.35"/><rect x="372" y="12" width="8" height="17" fill="#d4d7db" opacity="0.35"/><text x="388" y="25" fill="#1f2328" font-weight="normal">4</text><text x="396" y="25" fill="#1f2328" font-weight="normal">2</text><text x="404" y="25" fill="#1f2328" font-weight="normal">%</text><text x="420" y="25" fill="#1f2328" font-weight="normal">·</text><text x="436" y="25" fill="#60676f" font-weight="normal">c</text><text x="444" y="25" fill="#60676f" font-weight="normal">o</text><text x="452" y="25" fill="#60676f" font-weight="normal">m</text><text x="460" y="25" fill="#60676f" font-weight="normal">m</text><text x="468" y="25" fill="#60676f" font-weight="normal">i</text><text x="476" y="25" fill="#60676f" font-weight="normal">t</text><text x="492" y="25" fill="#60676f" font-weight="normal">a</text><text x="500" y="25" fill="#60676f" font-weight="normal">t</text><text x="516" y="25" fill="#60676f" font-weight="normal">8</text><text x="524" y="25" fill="#60676f" font-weight="normal">0</text><text x="532" y="25" fill="#60676f" font-weight="normal">%</text><text x="548" y="25" fill="#1f2328" font-weight="normal">·</text><text x="564" y="25" fill="#60676f" font-weight="normal">a</text><text x="572" y="25" fill="#60676f" font-weight="normal">i</text><text x="580" y="25" fill="#60676f" font-weight="normal">m</text><text x="596" y="25" fill="#60676f" font-weight="normal">2</text><text x="604" y="25" fill="#60676f" font-weight="normal">0</text><text x="612" y="25" fill="#60676f" font-weight="normal">%</text><text x="12" y="50" fill="#60676f" font-weight="normal">i</text><text x="20" y="50" fill="#60676f" font-weight="normal">t</text><text x="28" y="50" fill="#60676f" font-weight="normal">e</text><text x="36" y="50" fill="#60676f" font-weight="normal">m</text><text x="44" y="50" fill="#60676f" font-weight="normal">s</text><rect x="60" y="37" width="8" height="17" fill="#697078"/><rect x="68" y="37" width="8" height="17" fill="#697078"/><text x="84" y="50" fill="#a0691b" font-weight="bold">[</text><rect x="92" y="43.375" width="8" height="10.625" fill="#8f6891"/><rect x="100" y="43.375" width="8" height="10.625" fill="#8f6891"/><rect x="116" y="41.25" width="8" height="12.75" fill="#a0691b"/><rect x="124" y="41.25" width="8" height="12.75" fill="#a0691b"/><rect x="140" y="43.375" width="8" height="10.625" fill="#8f6891"/><rect x="148" y="43.375" width="8" height="10.625" fill="#8f6891"/><rect x="164" y="41.25" width="8" height="12.75" fill="#a0691b"/><rect x="172" y="41.25" width="8" height="12.75" fill="#a0691b"/><rect x="188" y="41.25" width="8" height="12.75" fill="#9e656e"/><rect x="196" y="41.25" width="8" height="12.75" fill="#9e656e"/><rect x="212" y="41.25" width="8" height="12.75" fill="#a0691b"/><rect x="220" y="41.25" width="8" height="12.75" fill="#a0691b"/><rect x="236" y="41.25" width="8" height="12.75" fill="#9e656e"/><rect x="244" y="41.25" width="8" height="12.75" fill="#9e656e"/><rect x="260" y="41.25" width="8" height="12.75" fill="#9e656e"/><rect x="268" y="41.25" width="8" height="12.75" fill="#9e656e"/><rect x="284" y="41.25" width="8" height="12.75" fill="#9e656e"/><rect x="292" y="41.25" width="8" height="12.75" fill="#9e656e"/><text x="300" y="50" fill="#a0691b" font-weight="bold">]</text><rect x="316" y="37" width="8" height="17" fill="#697078"/><rect x="324" y="37" width="8" height="17" fill="#697078"/><text x="340" y="50" fill="#477150" font-weight="bold">[</text><rect x="348" y="39.125" width="8" height="14.875" fill="#477150"/><rect x="356" y="39.125" width="8" height="14.875" fill="#477150"/><text x="364" y="50" fill="#477150" font-weight="bold">]</text><rect x="380" y="37" width="8" height="17" fill="#697078"/><rect x="388" y="37" width="8" height="17" fill="#697078"/><text x="404" y="50" fill="#477150" font-weight="bold">[</text><rect x="412" y="39.125" width="8" height="14.875" fill="#477150"/><rect x="420" y="39.125" width="8" height="14.875" fill="#477150"/><text x="428" y="50" fill="#477150" font-weight="bold">]</text><rect x="444" y="37" width="8" height="17" fill="#697078"/><rect x="452" y="37" width="8" height="17" fill="#697078"/><text x="476" y="50" fill="#1f2328" font-weight="normal">3</text><text x="492" y="50" fill="#1f2328" font-weight="normal">p</text><text x="500" y="50" fill="#1f2328" font-weight="normal">e</text><text x="508" y="50" fill="#1f2328" font-weight="normal">n</text><text x="516" y="50" fill="#1f2328" font-weight="normal">d</text><text x="524" y="50" fill="#1f2328" font-weight="normal">i</text><text x="532" y="50" fill="#1f2328" font-weight="normal">n</text><text x="540" y="50" fill="#1f2328" font-weight="normal">g</text><text x="556" y="50" fill="#1f2328" font-weight="normal">(</text><text x="564" y="50" fill="#477150" font-weight="normal">2</text><text x="580" y="50" fill="#477150" font-weight="normal">t</text><text x="588" y="50" fill="#477150" font-weight="normal">o</text><text x="596" y="50" fill="#477150" font-weight="normal">o</text><text x="604" y="50" fill="#477150" font-weight="normal">l</text><text x="612" y="50" fill="#477150" font-weight="normal">s</text><text x="620" y="50" fill="#d4d7db" font-weight="normal">,</text><text x="636" y="50" fill="#a0691b" font-weight="normal">1</text><text x="652" y="50" fill="#a0691b" font-weight="normal">g</text><text x="660" y="50" fill="#a0691b" font-weight="normal">r</text><text x="668" y="50" fill="#a0691b" font-weight="normal">o</text><text x="676" y="50" fill="#a0691b" font-weight="normal">u</text><text x="684" y="50" fill="#a0691b" font-weight="normal">p</text><text x="692" y="50" fill="#1f2328" font-weight="normal">)</text><text x="708" y="50" fill="#d4d7db" font-weight="normal">·</text><text x="724" y="50" fill="#1f2328" font-weight="normal">6</text><text x="740" y="50" fill="#1f2328" font-weight="normal">f</text><text x="748" y="50" fill="#1f2328" font-weight="normal">o</text><text x="756" y="50" fill="#1f2328" font-weight="normal">l</text><text x="764" y="50" fill="#1f2328" font-weight="normal">d</text><text x="772" y="50" fill="#1f2328" font-weight="normal">e</text><text x="780" y="50" fill="#1f2328" font-weight="normal">d</text><text x="796" y="50" fill="#1f2328" font-weight="normal">(</text><text x="804" y="50" fill="#9e656e" font-weight="normal">4</text><text x="820" y="50" fill="#9e656e" font-weight="normal">s</text><text x="828" y="50" fill="#9e656e" font-weight="normal">p</text><text x="836" y="50" fill="#9e656e" font-weight="normal">a</text><text x="844" y="50" fill="#9e656e" font-weight="normal">n</text><text x="852" y="50" fill="#9e656e" font-weight="normal">s</text><text x="860" y="50" fill="#d4d7db" font-weight="normal">,</text><text x="876" y="50" fill="#8f6891" font-weight="normal">2</text><text x="892" y="50" fill="#8f6891" font-weight="normal">g</text><text x="900" y="50" fill="#8f6891" font-weight="normal">r</text><text x="908" y="50" fill="#8f6891" font-weight="normal">o</text><text x="916" y="50" fill="#8f6891" font-weight="normal">u</text><text x="924" y="50" fill="#8f6891" font-weight="normal">p</text><text x="932" y="50" fill="#8f6891" font-weight="normal">s</text><text x="940" y="50" fill="#1f2328" font-weight="normal">)</text></g></svg>
